<?xml version="1.0" encoding="utf-8"?>
<!-- Generator: Adobe Illustrator 23.0.3, SVG Export Plug-In . SVG Version: 6.00 Build 0)  -->
<svg version="1.1" id="Layer_8" xmlns="http://www.w3.org/2000/svg" xmlns:xlink="http://www.w3.org/1999/xlink" x="0px" y="0px"
	 viewBox="0 0 1200 1200" style="enable-background:new 0 0 1200 1200;" xml:space="preserve">
<style type="text/css">
	.st0{fill:none;stroke:#000000;stroke-width:40;stroke-miterlimit:1;}
</style>
<g>
	<path d="M600,193.49c54.9,0,108.13,10.74,158.22,31.93c48.4,20.47,91.88,49.79,129.23,87.14c37.35,37.35,66.67,80.83,87.14,129.23
		c21.18,50.08,31.93,103.32,31.93,158.22s-10.74,108.13-31.93,158.22c-20.47,48.4-49.79,91.88-87.14,129.23
		c-37.35,37.35-80.83,66.67-129.23,87.14c-50.08,21.18-103.32,31.93-158.22,31.93s-108.13-10.74-158.22-31.93
		c-48.4-20.47-91.88-49.79-129.23-87.14c-37.35-37.35-66.67-80.83-87.14-129.23C204.23,708.13,193.49,654.9,193.49,600
		s10.74-108.13,31.93-158.22c20.47-48.4,49.79-91.88,87.14-129.23c37.35-37.35,80.83-66.67,129.23-87.14
		C491.87,204.23,545.1,193.49,600,193.49 M600,143.49c-252.12,0-456.51,204.39-456.51,456.51S347.88,1056.51,600,1056.51
		S1056.51,852.12,1056.51,600S852.12,143.49,600,143.49L600,143.49z"/>
</g>
<g>
	<path d="M386.62,403.03c49.79,2.8,96.2,23.53,131.75,59.07c38.31,38.31,59.4,89.24,59.4,143.41s-21.1,105.1-59.4,143.41
		c-35.54,35.54-81.96,56.27-131.75,59.07V403.03 M374.96,362.7c-13.25,0-28.34,0-28.34,0v485.62c0,0,11.21,0,28.34,0
		c134.1,0,242.81-108.71,242.81-242.81S509.06,362.7,374.96,362.7L374.96,362.7z"/>
</g>
<line class="st0" x1="816.84" y1="642.02" x2="685.21" y2="642.02"/>
<polygon points="644.28,840 600,840 726.93,360 771.21,360 "/>
<polygon points="854.55,840 898.83,840 771.89,360 727.62,360 "/>
</svg>
