<?xml version="1.0" encoding="utf-8"?>
<!-- Generator: Adobe Illustrator 23.0.3, SVG Export Plug-In . SVG Version: 6.00 Build 0)  -->
<svg version="1.1" id="Layer_5" xmlns="http://www.w3.org/2000/svg" xmlns:xlink="http://www.w3.org/1999/xlink" x="0px" y="0px"
	 viewBox="0 0 1200 1200" style="enable-background:new 0 0 1200 1200;" xml:space="preserve">
<style type="text/css">
	.st0{fill:#40B4E9;stroke:#40B4E9;stroke-miterlimit:1;}
	.st1{fill:#40B4E9;}
</style>
<path class="st0" d="M598.99,277.29c-89.73-89.73-235.22-89.74-324.96,0s-89.74,235.23-0.01,324.97
	c89.74,89.74,235.23,89.74,324.97,0S688.73,367.03,598.99,277.29z M314.11,391.03c-20.34-20.34-20.34-53.32,0.01-73.66
	c20.34-20.34,53.32-20.34,73.65,0c20.34,20.34,20.34,53.32,0.01,73.66C367.43,411.37,334.45,411.37,314.11,391.03z"/>
<g>
	<path class="st1" d="M855.11,947.6c-0.66,0-1.3-0.26-1.77-0.73L814,907.53c-0.63-0.63-0.88-1.55-0.65-2.41L825.44,860l-36.86,9.88
		c-0.21,0.06-0.43,0.08-0.65,0.08c-0.65,0-1.29-0.26-1.77-0.73c-0.63-0.63-0.88-1.55-0.65-2.42l9.88-36.86l-39.26,10.52
		c-0.21,0.06-0.43,0.08-0.65,0.08c-0.65,0-1.29-0.26-1.77-0.73c-0.63-0.63-0.88-1.55-0.65-2.42l10.52-39.26l-39.26,10.52
		c-0.21,0.06-0.43,0.08-0.65,0.08c-0.65,0-1.29-0.26-1.77-0.73c-0.63-0.63-0.88-1.55-0.65-2.42l10.52-39.26l-39.14,10.49
		c-0.21,0.06-0.43,0.08-0.65,0.08c-0.65,0-1.29-0.26-1.77-0.73c-0.63-0.63-0.88-1.55-0.65-2.41l10.48-39.14l-39.26,10.52
		c-0.21,0.06-0.43,0.08-0.65,0.08c-0.65,0-1.29-0.26-1.77-0.73c-0.63-0.63-0.88-1.55-0.65-2.42l10.52-39.26l-45.12,12.09
		c-0.21,0.06-0.43,0.08-0.65,0.08c-0.65,0-1.29-0.26-1.77-0.73L491.7,585.23c-0.98-0.98-0.98-2.56,0-3.54l86.73-86.73
		c0.47-0.47,1.1-0.73,1.77-0.73s1.3,0.26,1.77,0.73L943.61,856.6c0.47,0.47,0.73,1.1,0.73,1.77v86.73c0,1.38-1.12,2.5-2.5,2.5
		H855.11z"/>
	<path class="st1" d="M580.2,496.73l361.64,361.64v86.73l-86.73,0l-39.34-39.34l13.21-49.3l-41.04,11l11-41.04l-43.44,11.64
		l11.64-43.44l-43.44,11.64l11.64-43.44l-43.32,11.61l11.6-43.32l-43.44,11.64l11.64-43.44l-49.3,13.21L493.47,583.46L580.2,496.73
		 M580.2,491.73c-1.28,0-2.56,0.49-3.54,1.46l-86.73,86.73c-0.94,0.94-1.46,2.21-1.46,3.54s0.53,2.6,1.46,3.54l129.05,129.05
		c0.95,0.95,2.23,1.46,3.54,1.46c0.43,0,0.87-0.06,1.29-0.17l40.93-10.97l-9.4,35.08c-0.46,1.73,0.03,3.57,1.29,4.83
		c0.95,0.95,2.23,1.46,3.54,1.46c0.43,0,0.87-0.06,1.29-0.17l35.08-9.4l-9.36,34.96c-0.46,1.73,0.03,3.57,1.29,4.83
		c0.95,0.95,2.23,1.46,3.54,1.46c0.43,0,0.87-0.06,1.29-0.17l34.95-9.37l-9.4,35.07c-0.46,1.73,0.03,3.57,1.29,4.83
		c0.95,0.95,2.23,1.46,3.54,1.46c0.43,0,0.87-0.06,1.29-0.17l35.08-9.4l-9.4,35.08c-0.46,1.73,0.03,3.57,1.29,4.83
		c0.95,0.95,2.23,1.46,3.54,1.46c0.43,0,0.87-0.06,1.29-0.17l35.08-9.4l-8.76,32.68c-0.46,1.73,0.03,3.57,1.29,4.83
		c0.95,0.95,2.23,1.46,3.54,1.46c0.43,0,0.87-0.06,1.29-0.17l32.68-8.76l-10.97,40.93c-0.46,1.73,0.03,3.57,1.29,4.83l39.34,39.34
		c0.94,0.94,2.21,1.46,3.54,1.46l86.73,0c1.33,0,2.6-0.53,3.54-1.46c0.94-0.94,1.46-2.21,1.46-3.54v-86.73
		c0-1.33-0.53-2.6-1.46-3.54L583.73,493.19C582.76,492.22,581.48,491.73,580.2,491.73L580.2,491.73z"/>
</g>
</svg>
