<?xml version="1.0" encoding="utf-8"?>
<!-- Generator: Adobe Illustrator 23.0.3, SVG Export Plug-In . SVG Version: 6.00 Build 0)  -->
<svg version="1.1" id="Layer_6" xmlns="http://www.w3.org/2000/svg" xmlns:xlink="http://www.w3.org/1999/xlink" x="0px" y="0px"
	 viewBox="0 0 1200 1200" style="enable-background:new 0 0 1200 1200;" xml:space="preserve">
<style type="text/css">
	.st0{fill:#40B4E9;stroke:#40B4E9;stroke-width:3.486;stroke-linecap:round;stroke-linejoin:round;stroke-miterlimit:1;}
	.st1{fill:#40B4E9;stroke:#40B4E9;stroke-width:3.0912;stroke-linecap:round;stroke-linejoin:round;stroke-miterlimit:1;}
</style>
<path class="st0" d="M811.47,370.71c0,24.09-4.03,47.25-11.45,68.83c0,0-0.02,0.06-0.06,0.19c-2.01,6.35-53.56,169.49-53.56,235.13
	c0,66.95-30.95,94.31-73.43,94.31c-42.47,0-72.97,0-72.97,0s-30.49,0-72.97,0c-42.48,0-73.43-27.36-73.43-94.31
	c0-65.64-51.55-228.78-53.56-235.13c-0.04-0.13-0.06-0.19-0.06-0.19c-7.42-21.58-11.45-44.73-11.45-68.83
	c0-116.8,94.68-211.47,211.47-211.47S811.47,253.92,811.47,370.71z"/>
<path class="st0" d="M725.77,819.81v101.87c0,18.38-4.6,32.93-39.83,32.93c-35.24,0-136.64,0-171.88,0
	c-35.23,0-39.83-14.55-39.83-32.93V819.81c0-30.67,9.96-30.64,30.64-30.64s169.58,0,190.26,0S725.77,789.14,725.77,819.81z"/>
<path class="st1" d="M661.27,968.69c-17.27,16.09-40.42,25.92-65.87,25.92c-25.45,0-48.6-9.83-65.87-25.92H661.27z"/>
</svg>
